<svg id="Layer_1" data-name="Layer 1" xmlns="http://www.w3.org/2000/svg" xmlns:xlink="http://www.w3.org/1999/xlink" viewBox="0 0 1080 1080"><defs><style>.cls-1{fill:none;}.cls-2{fill:#f5871f;}.cls-3{clip-path:url(#clip-path);}.cls-4{fill:#f89b1d;}.cls-5{fill:#49321d;}.cls-6{fill:#fbe6cd;}.cls-7{fill:#f8ad1b;}.cls-8{fill:#c77f2a;}.cls-9{fill:#7e973c;}.cls-10{fill:#5f4d3b;}</style><clipPath id="clip-path"><path class="cls-1" d="M429.71,606.26c0-128.25,104-232.21,232.21-232.21S894.14,478,894.14,606.26s-104,232.22-232.22,232.22a232.18,232.18,0,0,1-60.27-7.9"/></clipPath></defs><title>Mandarin</title><path class="cls-2" d="M429.71,606.26c0-128.25,104-232.21,232.21-232.21S894.14,478,894.14,606.26s-104,232.22-232.22,232.22a232.18,232.18,0,0,1-60.27-7.9"/><g class="cls-3"><path class="cls-4" d="M376.06,631.1c0-128.25,104-232.22,232.22-232.22S840.5,502.85,840.5,631.1s-104,232.22-232.22,232.22a232.69,232.69,0,0,1-60.28-7.9"/></g><path class="cls-5" d="M438.28,606.26a223.36,223.36,0,1,1,165.59,216,8.58,8.58,0,1,0-4.44,16.57,240.86,240.86,0,1,0-178.3-232.61,8.58,8.58,0,0,0,17.16,0Z"/><path class="cls-6" d="M478.49,864.61H460.38c-118.47,0-214.5-96-214.5-214.5h0a34.32,34.32,0,0,1,34.31-34.32H658.67A34.33,34.33,0,0,1,693,650.11h0C693,768.58,597,864.61,478.49,864.61Z"/><path class="cls-5" d="M478.49,864.61V856H460.38A205.93,205.93,0,0,1,254.45,650.11h0a25.73,25.73,0,0,1,25.73-25.74H658.67a25.74,25.74,0,0,1,25.74,25.74h0A205.91,205.91,0,0,1,478.49,856v17.16A223.08,223.08,0,0,0,701.57,650.11h0a42.92,42.92,0,0,0-42.9-42.9H280.19a42.9,42.9,0,0,0-42.89,42.9h0A223.07,223.07,0,0,0,460.38,873.19h18.11Z"/><path class="cls-7" d="M300.2,656,429.71,656l-93.64,89.47A136.81,136.81,0,0,1,300.2,656Z"/><path class="cls-8" d="M300.2,656v8.58l108.09,0-78.15,74.68,5.93,6.2,6.33-5.79a128.31,128.31,0,0,1-33.62-83.81l-8.58.19v0l-8.58.19a145.43,145.43,0,0,0,38.12,95l5.92,6.47L451.11,647.39l-159.68.08.19,8.76Z"/><path class="cls-7" d="M357.6,767.7l91.53-91.61-2.95,129.47A136.8,136.8,0,0,1,357.6,767.7Z"/><path class="cls-8" d="M357.6,767.7l6.07,6.07,76.4-76.47-2.46,108.06,8.57.2.38-8.57a128.3,128.3,0,0,1-83-35.48l-5.93,6.19h0l6.07,6.07-6.07-6.07H349v3.67l2.65,2.53a145.41,145.41,0,0,0,94.14,40.23l8.75.39,3.63-159.65L349,764.15v3.55Z"/><path class="cls-7" d="M477.14,806.07l-.06-129.5,89.47,93.63A136.81,136.81,0,0,1,477.14,806.07Z"/><path class="cls-8" d="M477.14,806.07h8.58L485.67,698l74.68,78.15,6.2-5.93-5.79-6.33A128.26,128.26,0,0,1,477,797.5l.18,8.57h0l.19,8.58a145.41,145.41,0,0,0,95-38.12l6.47-5.92L468.49,655.16l.08,159.68,8.76-.19Z"/><path class="cls-7" d="M588.81,748.67l-91.62-91.53,129.47,3A136.84,136.84,0,0,1,588.81,748.67Z"/><path class="cls-8" d="M588.81,748.67l6.06-6.07L518.4,666.21l108.06,2.46.2-8.58-8.57-.38a128.25,128.25,0,0,1-35.48,83l6.2,5.93,6.06-6.07-6.06,6.07,6.19,5.94a145.38,145.38,0,0,0,40.23-94.14l.39-8.76L476,648.08l113,112.86,6.06-6.33Z"/><path class="cls-9" d="M632.44,336.49h0A177.63,177.63,0,0,1,866,244.06h0A177.63,177.63,0,0,1,632.44,336.49Z"/><path class="cls-5" d="M632.44,336.49l7.87,3.41a168.93,168.93,0,0,1,222.32-88l3.4-7.87h0l-7.87-3.41a168.93,168.93,0,0,1-222.32,88l-3.4,7.87,7.87,3.41-7.87-3.41L629,344.37a186.19,186.19,0,0,0,244.88-96.9l.7-1.64v-7.41l-5.17-2.24a186.19,186.19,0,0,0-244.88,96.9L621.15,341l7.88,3.41Z"/><path class="cls-10" d="M813.11,551.92a16.21,16.21,0,1,1-16.21-16.21A16.21,16.21,0,0,1,813.11,551.92Z"/><path class="cls-10" d="M835,621.75a16.21,16.21,0,1,1-16.2-16.21A16.2,16.2,0,0,1,835,621.75Z"/><path class="cls-10" d="M765.44,606.26a16.21,16.21,0,1,1-16.2-16.2A16.2,16.2,0,0,1,765.44,606.26Z"/><path class="cls-10" d="M796.9,695.87a16.21,16.21,0,1,1-16.2-16.2A16.2,16.2,0,0,1,796.9,695.87Z"/><path class="cls-10" d="M733,761.66a16.21,16.21,0,1,1-16.21-16.21A16.2,16.2,0,0,1,733,761.66Z"/><path class="cls-5" d="M634.84,374.05V229.39a8.58,8.58,0,0,0-17.16,0V374.05a8.58,8.58,0,0,0,17.16,0"/></svg>