<?xml version="1.0" ?><svg height="32" id="svg17515" version="1.1" viewBox="0 0 32 32.000001" width="32" xmlns="http://www.w3.org/2000/svg" xmlns:cc="http://creativecommons.org/ns#" xmlns:dc="http://purl.org/dc/elements/1.1/" xmlns:inkscape="http://www.inkscape.org/namespaces/inkscape" xmlns:rdf="http://www.w3.org/1999/02/22-rdf-syntax-ns#" xmlns:sodipodi="http://sodipodi.sourceforge.net/DTD/sodipodi-0.dtd" xmlns:svg="http://www.w3.org/2000/svg"><defs id="defs17517"><clipPath clipPathUnits="userSpaceOnUse" id="clipPath32617-9-8-8-9"><circle cx="-64.623535" cy="50.047192" id="path32619-2-3-5-1" r="38.553814" style="fill:#4bb7c0;fill-opacity:1;stroke:none" transform="matrix(9.3443438,0,0,9.3443438,-627.91229,-5859.5225)"/></clipPath><clipPath clipPathUnits="userSpaceOnUse" id="clipPath19550"><circle cx="-64.623535" cy="50.047192" id="circle19552" r="38.553814" style="fill:#4bb7c0;fill-opacity:1;stroke:none" transform="matrix(9.3443438,0,0,9.3443438,-627.91229,-5859.5225)"/></clipPath></defs><g id="layer1" transform="translate(0,-1020.3622)"><g id="g41389" style="display:inline" transform="translate(649.61754,81.04395)"><path d="m -632.61754,958.81825 a 6.5,6.5 0 0 1 -6.5,6.5 6.5,6.5 0 0 1 -6.5,-6.5 6.5,6.5 0 0 1 6.5,-6.5 6.5,6.5 0 0 1 6.5,6.5 z" id="circle48535" style="opacity:1;fill:#ff766c;fill-opacity:1;stroke:none;stroke-width:1;stroke-linecap:round;stroke-linejoin:round;stroke-miterlimit:4;stroke-dasharray:none;stroke-opacity:1"/><path d="m -633.02344,956.56728 a 6.5,6.5 0 0 0 -2.68359,5.25 6.5,6.5 0 0 0 0.40625,2.25195 6.5,6.5 0 0 0 2.68359,-5.25195 6.5,6.5 0 0 0 -0.40625,-2.25 z" id="path41365" style="opacity:1;fill:#ec7067;fill-opacity:1;stroke:none;stroke-width:1;stroke-linecap:round;stroke-linejoin:round;stroke-miterlimit:4;stroke-dasharray:none;stroke-opacity:1"/><path d="m -629.11754,945.06825 c 0,0 -1.79262,-2.5148 -3.16023,-3.0125 -1.36762,-0.4978 -4.35731,0.2763 -4.35731,0.2763 0,0 1.79262,2.5148 3.16023,3.0125 1.36762,0.4978 4.35731,-0.2763 4.35731,-0.2763 z" id="path48529" style="fill:#88b03c;fill-opacity:1;fill-rule:evenodd;stroke:none;stroke-width:1px;stroke-linecap:round;stroke-linejoin:round;stroke-opacity:1"/><path d="m -629.11754,945.06825 c 0,0 1.60961,-2.2426 2.8376,-2.6865 1.228,-0.444 3.91247,0.2463 3.91247,0.2463 0,0 -1.60962,2.2427 -2.8376,2.6866 -1.228,0.4439 -3.91247,-0.2464 -3.91247,-0.2464 z" id="path48531" style="fill:#8ba753;fill-opacity:1;fill-rule:evenodd;stroke:none;stroke-width:0.99999994px;stroke-linecap:round;stroke-linejoin:round;stroke-opacity:1"/><path d="m -621.86754,961.81825 a 6.5,6.5 0 0 1 -6.5,6.5 6.5,6.5 0 0 1 -6.5,-6.5 6.5,6.5 0 0 1 6.5,-6.5 6.5,6.5 0 0 1 6.5,6.5 z" id="path48533" style="opacity:1;fill:#ff766c;fill-opacity:1;stroke:none;stroke-width:1;stroke-linecap:round;stroke-linejoin:round;stroke-miterlimit:4;stroke-dasharray:none;stroke-opacity:1"/><path d="m -637.28866,958.06685 a 2.25,2.25 0 0 1 -1.78187,-0.77811 2.25,2.25 0 0 1 -0.51014,-1.87624" id="circle6291" style="opacity:1;fill:none;fill-opacity:1;stroke:#ea6153;stroke-width:1;stroke-linecap:round;stroke-linejoin:round;stroke-miterlimit:4;stroke-dasharray:none;stroke-opacity:1"/><path d="m -625.87476,959.3236 a 2.4999826,2.4999826 0 0 1 -2.02044,0.4383 2.4999826,2.4999826 0 0 1 -1.65958,-1.2329" id="circle6294" style="opacity:1;fill:none;fill-opacity:1;stroke:#ea6153;stroke-width:1;stroke-linecap:round;stroke-linejoin:round;stroke-miterlimit:4;stroke-dasharray:none;stroke-opacity:1"/><path d="m -634.65625,954.10243 -1.89063,1.51368 a 0.50005,0.50005 0 1 0 0.625,0.77929 l 1.94532,-1.55468 a 6.5,6.5 0 0 0 -0.67969,-0.73829 z m 7.95898,1.43555 c -0.0268,0.13669 -0.0448,0.27406 -0.0762,0.41016 l -0.44726,1.94531 a 0.50005,0.50005 0 1 0 0.97265,0.22461 l 0.44922,-1.94531 c 0.0226,-0.0978 0.0343,-0.19683 0.0547,-0.29492 a 6.5,6.5 0 0 0 -0.95313,-0.33985 z" id="path41356" style="color:#000000;font-style:normal;font-variant:normal;font-weight:normal;font-stretch:normal;font-size:medium;line-height:normal;font-family:sans-serif;text-indent:0;text-align:start;text-decoration:none;text-decoration-line:none;text-decoration-style:solid;text-decoration-color:#000000;letter-spacing:normal;word-spacing:normal;text-transform:none;direction:ltr;writing-mode:lr-tb;baseline-shift:baseline;text-anchor:start;white-space:normal;clip-rule:nonzero;display:inline;overflow:visible;visibility:visible;opacity:1;isolation:auto;mix-blend-mode:normal;color-interpolation:sRGB;color-interpolation-filters:linearRGB;solid-color:#000000;solid-opacity:1;fill:#ec7067;fill-opacity:1;fill-rule:evenodd;stroke:none;stroke-width:1px;stroke-linecap:round;stroke-linejoin:round;stroke-miterlimit:4;stroke-dasharray:none;stroke-dashoffset:0;stroke-opacity:1;color-rendering:auto;image-rendering:auto;shape-rendering:auto;text-rendering:auto;enable-background:accumulate"/><path d="m -629.11363,944.31935 a 0.50005,0.50005 0 0 0 -0.48828,0.3769 l -0.43555,1.7442 c -0.66385,2.6554 -2.18104,5.0186 -4.31836,6.7285 l -2.82422,2.2598 a 0.50005,0.50005 0 1 0 0.625,0.7793 l 2.82422,-2.2579 c 2.30818,-1.8465 3.94519,-4.3999 4.66211,-7.2675 l 0.10742,-0.4336 0.55664,1.1113 c 1.29956,2.5991 1.65147,5.5689 0.99805,8.4004 l -0.44727,1.9453 a 0.50005,0.50005 0 1 0 0.97266,0.2246 l 0.44922,-1.9453 c 0.70565,-3.0578 0.32335,-6.2654 -1.08008,-9.0723 l -1.1582,-2.3183 a 0.50005,0.50005 0 0 0 -0.44336,-0.2754 z" id="path48537" style="color:#000000;font-style:normal;font-variant:normal;font-weight:normal;font-stretch:normal;font-size:medium;line-height:normal;font-family:sans-serif;text-indent:0;text-align:start;text-decoration:none;text-decoration-line:none;text-decoration-style:solid;text-decoration-color:#000000;letter-spacing:normal;word-spacing:normal;text-transform:none;direction:ltr;writing-mode:lr-tb;baseline-shift:baseline;text-anchor:start;white-space:normal;clip-rule:nonzero;display:inline;overflow:visible;visibility:visible;opacity:1;isolation:auto;mix-blend-mode:normal;color-interpolation:sRGB;color-interpolation-filters:linearRGB;solid-color:#000000;solid-opacity:1;fill:#88b03c;fill-opacity:1;fill-rule:evenodd;stroke:none;stroke-width:1px;stroke-linecap:round;stroke-linejoin:round;stroke-miterlimit:4;stroke-dasharray:none;stroke-dashoffset:0;stroke-opacity:1;color-rendering:auto;image-rendering:auto;shape-rendering:auto;text-rendering:auto;enable-background:accumulate"/></g></g></svg>